<svg xmlns="http://www.w3.org/2000/svg" viewBox="0 0 315.04 88.12"><defs><style>.cls-1{fill:#8b8b8b;}</style></defs><title>2NTA logo</title><g id="Layer_2" data-name="Layer 2"><g id="Layer_1-2" data-name="Layer 1"><path class="cls-1" d="M71.6,57.26a267.89,267.89,0,0,0-28.79-7.19c-6.7-1.33-13.2-2.41-19.09-3.2l-.93-.12-.16,0C9.62,45,1.48,45,.18,46a2,2,0,0,1-.13.22c0,.05,0,.11,0,.16h0c0,.16,0,.32,0,.49s0,.38,0,.57,0,.41.05.61,0,.37.06.56,0,.4.07.6,0,.39.08.59.05.37.08.56.07.44.11.66,0,.33.08.49c.07.37.13.74.21,1.12L.91,53c.06.29.12.57.19.86l.1.43c0,.17.08.34.12.5h0q.2.81.43,1.61c1.35-.59,4.42-1,11.55-.48l.23,0q-.07-.75-.12-1.51c3.13.24,6.63.63,10.4,1.15.2-6.52,22-2.28,47.44,2.75.06-.17.12-.18.18-.34,6,1.93,10.3,3.66,11.87,5.08.08-.16.09-.42.16-.59-1.76-1.44-6-3.24-11.87-5.14v0"/><path class="cls-1" d="M40.57,61.21c-6.6-1.31-13-2.36-18.69-3.08-11.2-1.45-18.34-1.48-19.79-.67l.08.25h0c0,.13.09.25.13.37q.16.47.33.94l.19.51c.11.3.23.6.35.9l.21.5c.13.31.26.61.39.91l.2.46c.15.32.3.64.46,1l.19.38c.18.36.37.73.56,1.08L5.3,65q.7,1.3,1.49,2.56h0c.3.47.61.95.92,1.41.93-.51,3.13-.9,8.56-.55-.18-.51-.36-1-.53-1.54l.77,0c2.33.17,4.94.44,7.74.82-.54-7.26,16.82-4.44,42.19,1.08.09-.16.19-.15.27-.31,4.93,1.59,8.52,3.09,10.13,4.31.11-.13.23-.43.34-.56-2.39-1.8-8.6-4.11-17-6.43-5.82-1.61-12.53-3.18-19.59-4.58"/><path class="cls-1" d="M46.88,74.77l-.1,0c-2.74-.65-5.61-1.27-8.56-1.86-4.74-.94-9.33-1.71-13.5-2.27h0c-9.13-1.25-15-1.33-16.31-.72l.16.21h0l.33.44.46.6.44.56.5.6.44.51.56.64.41.45.67.71.33.35,1,.95.08.08c.68.65,1.39,1.28,2.12,1.89h0c.48.4,1,.79,1.46,1.17a18.87,18.87,0,0,1,4.78-.22c-.41-.5-.8-1-1.18-1.55l1.68,0c1.1,0,2.44.11,4,.25C25.08,72.37,38.27,74,58.43,79c.15-.14.12-.28.26-.42a35,35,0,0,1,7.24,3c.16-.1.5-.2.66-.29C64,79.53,56.61,77.07,47,74.8l-.13,0"/><path class="cls-1" d="M42.95,83.26l-.2,0c-2-.49-4.11-1-6.32-1.4-3.14-.62-6.05-1-8.54-1.26v0a72.21,72.21,0,0,0-9.09-.42l.2.14h0l.38.26.44.29.48.32.45.28.49.3.36.22h0a43.76,43.76,0,0,0,24.58,6.15,43.8,43.8,0,0,1-14.25-2.63,3,3,0,0,1-.82-.55c-2.47-3,4.28-2,17.15.93.25-.1.33-.22.58-.33a36.5,36.5,0,0,1,3.71,1.38c.28-.05.72-.12,1-.19a52,52,0,0,0-9.58-3.17l-1-.25"/><path class="cls-1" d="M45,39.21c-6.41-1.27-12.65-2.33-18.38-3.13-4.39-.63-8.51-1.1-12.16-1.4C5,33.89,1.9,34.53,1,34.87l-.13.62q-.11.54-.2,1.08l-.06.34c0,.25-.08.51-.12.76s0,.25-.05.37-.07.51-.1.77,0,.22,0,.32c0,.35-.08.69-.11,1a.3.3,0,0,0,0,0c0,.37-.06.75-.09,1.12,0,.06,0,.11,0,.17,0,.32,0,.63,0,.94,0,.07,0,.15,0,.22s0,.28,0,.42H0c0,.6,0,1.19,0,1.78,1.49-.64,4.86-1.1,12.68-.54l.9.07q.07-.74.16-1.49c3.4.29,7.18.72,11.22,1.28C26,38,48.55,42.47,74,47.5c0-.19.06-.2.09-.38,6.49,2.06,10.91,3.93,12.72,5.33,0-.18.07-.53.1-.71-3.19-2.37-11.75-5.28-22.14-8C58.7,42.14,52,40.6,45,39.21"/><path class="cls-1" d="M21.68,13.24c1.2.09,2.46.19,3.77.33.37-.47.75-.92,1.13-1.37,2.79.3,5.79.7,8.94,1.17,3.68-5.28,10.3-4,33.71,1.3-.13-.24-.26-.3-.39-.54,5.85,1.76,9.4,3.32,10.44,4.31-.29-.4-.58-1-.88-1.35-2.48-1.47-7.54-3.18-13.58-4.8C60.52,11.14,55.64,10,50.51,9A183.32,183.32,0,0,0,29.23,5.9l-.31,0a36.86,36.86,0,0,0-6.76,0l-.64.38h0l-.23.13h0l0,0h0l0,0-1.12.7-.1.07-1,.66L18.7,8l-.76.54-.34.25-.71.54-.33.26-.7.58-.3.25-.75.65-.23.2-.17.15h0c-.6.55-1.19,1.11-1.76,1.68a52.75,52.75,0,0,1,9,.08"/><path class="cls-1" d="M16.81,22.78l2.76.24c.21-.42.42-.85.64-1.26,3.26.32,6.79.76,10.54,1.31,2.76-6.05,17.43-2.62,42.76,2.66,0-.21-.09-.24-.14-.44,5.8,1.78,10,3.48,11.91,4.83-.09-.27-.17-.7-.27-1-3.49-2.16-11.84-5-22.67-7.6-4.19-1-8.68-2-13.32-2.94-6.65-1.32-13.07-2.38-18.81-3.11-9.67-1.25-16.31-1.43-18.87-.94l-.24.26h0L11,15l-.56.64-.23.27-.54.66-.21.26-.59.77-.13.17L8,18.69l-.17.26-.47.7-.27.41-.35.55-.29.47-.15.23h0c-.33.56-.66,1.12-1,1.7,1.92-.45,5.34-.67,11.47-.23"/><path class="cls-1" d="M29.82,4.61c1.45.11,3,.25,4.68.44.66-.44,1.33-.85,2-1.23,1.88.24,3.86.53,5.9.86A9.06,9.06,0,0,1,50.19,2a43.68,43.68,0,0,1,23.7,9.64A43.72,43.72,0,0,0,44.09,0a43,43,0,0,0-6.18.45l-.21,0L36.65.65,36,.77,35,1l-.66.15-1,.23-.63.16-1,.29-.57.16-1.23.4-.33.11c-.49.17-1,.35-1.47.54h0q-1.69.65-3.32,1.44c1.29,0,2.92,0,5,.17"/><path class="cls-1" d="M13.67,33.29l2,.15c.14-.49.28-1,.43-1.46,3.44.31,7.23.76,11.25,1.34,1.89-5.6,22-1.68,47.44,3.36,0-.19,0-.22,0-.41,6.38,2,11,3.88,12.76,5.37,0-.23,0-.62-.06-.85-2.12-1.49-6.63-3.32-12.72-5.22h0A276,276,0,0,0,47,28.73c-6.72-1.33-13.23-2.42-19.15-3.22l-1.07-.14h0c-12.17-1.6-20.1-1.7-22.21-.9l-.17.36h0l-.16.35-.16.34-.28.61-.15.34-.27.62-.12.31c-.17.43-.34.85-.5,1.28l-.11.3-.19.54L2.3,30l-.17.52L2,31l-.15.5-.07.23h0c-.17.59-.33,1.18-.48,1.79,1.84-.51,5.41-.79,12.4-.29"/><path class="cls-1" d="M150.24,11.62l-6.71,37.07L125,11.62H91a71.27,71.27,0,0,1,4.87,26A71.7,71.7,0,0,1,79.76,82.83h32.12l6.94-35.64,18.38,35.64h28.6l13-71.2Z"/><polygon class="cls-1" points="181.9 11.62 244.78 11.62 240.54 34.76 224.11 34.76 215.25 82.83 185.35 82.83 194.25 34.76 177.66 34.76 181.9 11.62"/><path class="cls-1" d="M262.55,57,272,35.33,274.56,57ZM254.11,74h22.6l1.1,8.88h31.66l-16.33-71.2H260.06l-41.64,71.2h31.66Z"/><path class="cls-1" d="M313.27,20.34A6,6,0,0,1,302.95,16,6,6,0,0,1,315,16a5.87,5.87,0,0,1-1.77,4.29m-8-8a5,5,0,0,0-1.52,3.68,5.07,5.07,0,0,0,1.51,3.7,5.21,5.21,0,0,0,7.38,0,5,5,0,0,0,1.52-3.7,5.2,5.2,0,0,0-8.89-3.68m3.58.33a5.15,5.15,0,0,1,1.82.24,1.65,1.65,0,0,1,1,1.68,1.45,1.45,0,0,1-.65,1.31,2.5,2.5,0,0,1-1,.32,1.6,1.6,0,0,1,1.13.65,1.83,1.83,0,0,1,.36,1v.49c0,.15,0,.32,0,.5a1.07,1.07,0,0,0,.06.34l0,.08h-1.09v-.07l0-.07,0-.21v-.52A1.62,1.62,0,0,0,310,17a2.88,2.88,0,0,0-1.32-.21h-.93v2.61h-1.17V12.71Zm1.28,1.07a3.16,3.16,0,0,0-1.44-.24h-1v2.37h1.07a3.38,3.38,0,0,0,1.13-.14,1,1,0,0,0,.69-1,1,1,0,0,0-.45-1"/></g></g></svg>